<?xml version="1.0" encoding="UTF-8" standalone="no"?>
<svg width="96px" height="96px" viewBox="0 0 96 96" version="1.1" xmlns="http://www.w3.org/2000/svg" xmlns:xlink="http://www.w3.org/1999/xlink" xmlns:sketch="http://www.bohemiancoding.com/sketch/ns">
    <!-- Generator: Sketch 3.3.3 (12081) - http://www.bohemiancoding.com/sketch -->
    <title>logo_temp</title>
    <desc>Created with Sketch.</desc>
    <defs></defs>
    <g id="Page-1" stroke="none" stroke-width="1" fill="none" fill-rule="evenodd" sketch:type="MSPage">
        <g id="logo_temp" sketch:type="MSLayerGroup">
            <g id="Page-1" sketch:type="MSShapeGroup">
                <g id="Artboard-1">
                    <g id="logo-copy">
                        <circle id="Oval-1-Copy" fill="#E4C67E" cx="48" cy="48" r="48"></circle>
                        <g id="law1" transform="translate(23.000000, 20.000000)" fill="#FFFFFF">
                            <g id="Group">
                                <path d="M7.18214286,17.9782082 L5.35714286,39.7681598 L13.9267857,39.7681598 L12.1035714,17.9782082 L7.18214286,17.9782082 L7.18214286,17.9782082 Z" id="Shape"></path>
                                <path d="M37.1785714,17.9782082 L35.3553571,39.7681598 L43.925,39.7681598 L42.1,17.9782082 L37.1785714,17.9782082 L37.1785714,17.9782082 Z" id="Shape"></path>
                                <rect id="Rectangle-path" x="2.24107143" y="41.9473366" width="44.8" height="4.35653753"></rect>
                                <rect id="Rectangle-path" x="0" y="47.3934625" width="49.2821429" height="2.17917676"></rect>
                                <path d="M18.2125,17.4261501 L21.9160714,21.1343826 L20.3571429,39.7681598 L28.9267857,39.7681598 L27.3642857,21.1325666 L31.0678571,17.4243341 L31.0678571,15.7972155 L48.2125,15.7972155 L48.2125,12.1598063 L24.6410714,0.544794189 L1.07142857,12.1598063 L1.07142857,15.7972155 L18.2142857,15.7972155 L18.2125,17.4261501 L18.2125,17.4261501 Z M28.9232143,16.5145278 L24.6410714,20.8038741 L20.3571429,16.5145278 L20.3571429,10.3492736 L28.9267857,10.3492736 L28.9267857,16.5145278 L28.9232143,16.5145278 L28.9232143,16.5145278 Z" id="Shape"></path>
                            </g>
                        </g>
                    </g>
                </g>
            </g>
        </g>
    </g>
</svg>