<?xml version="1.0" encoding="UTF-8" standalone="no"?>
<svg width="138px" height="93px" viewBox="0 0 138 93" version="1.1" xmlns="http://www.w3.org/2000/svg" xmlns:xlink="http://www.w3.org/1999/xlink" xmlns:sketch="http://www.bohemiancoding.com/sketch/ns">
    
    <title>logo</title>
    <desc>Created with love</desc>
    <defs>
        <filter x="-50%" y="-50%" width="200%" height="200%" filterUnits="objectBoundingBox" id="filter-1">
            <feOffset dx="0" dy="3" in="SourceAlpha" result="shadowOffsetOuter1"></feOffset>
            <feGaussianBlur stdDeviation="3" in="shadowOffsetOuter1" result="shadowBlurOuter1"></feGaussianBlur>
            <feColorMatrix values="0 0 0 0 0   0 0 0 0 0   0 0 0 0 0  0 0 0 0.164617301 0" in="shadowBlurOuter1" type="matrix" result="shadowMatrixOuter1"></feColorMatrix>
            <feMerge>
                <feMergeNode in="shadowMatrixOuter1"></feMergeNode>
                <feMergeNode in="SourceGraphic"></feMergeNode>
            </feMerge>
        </filter>
    </defs>
    <g id="Page-1" stroke="none" stroke-width="1" fill="none" fill-rule="evenodd" sketch:type="MSPage">
        <g id="logo" sketch:type="MSLayerGroup" transform="translate(5.000000, 2.000000)">
            <g id="Group" sketch:type="MSShapeGroup">
                <g id="XMLID_43_" filter="url(#filter-1)" fill="#E6BB51">
                    <path d="M64,0.5 C99.1,0.5 127.6,19 127.6,41.7 C127.6,64.4 99.2,82.9 64,82.9 C28.8,82.9 0.4,64.4 0.4,41.7 C0.5,19 29,0.5 64,0.5 L64,0.5 L64,0.5 Z" id="Shape"></path>
                </g>
                <path d="M52,73.7 C46.8,72 42.2,69.7 38.1,67 C39.5,65 41,63.3 42.2,61.8 L41.1,60.8 C39.8,62.2 38.2,64.1 37,66.2 C32.4,62.9 28.5,58.8 26,54.4 C28.8,52.4 31.5,50.7 34.5,49.1 L33.8,48 C30.9,49.5 28.1,51.3 25.3,53.3 C23.6,49.9 22.7,46.3 22.4,42.5 L33.1,42.5 L33.1,41 L22.5,41 C22.6,37.3 23.6,33.6 25.3,30.2 C28.1,32.2 30.8,33.9 33.8,35.5 L34.5,34.3 C31.6,32.8 28.8,31 26,29 C28.4,24.5 32.3,20.5 36.9,17.2 C38.3,19.3 39.8,21.2 41.1,22.6 L42.2,21.6 C40.9,20.2 39.4,18.4 38.1,16.3 C42.2,13.5 46.8,11.3 52,9.6 C58.8,7.3 66.5,6.1 74.7,6.1 C91.4,6.1 106.7,12.5 116.6,20.6 C106.8,10.4 88,2 68.1,2 L68.1,2 C55.4,2 43.8,4.9 34.2,9.6 C34,9.3 33.9,8.9 33.8,8.5 C33.5,7.6 33.1,6.7 32.9,5.9 L32.9,5.9 L31.8,6.2 L31.6,6.3 C31.8,7.3 32.3,8.2 32.6,9.2 C32.8,9.6 32.9,10 33.2,10.4 C31.2,11.5 29.3,12.6 27.5,13.8 C23.9,16.2 20.8,19 18.3,22.1 C17,20.6 15.5,18.8 14.2,16.7 L13.1,17.5 C14.5,19.6 16,21.5 17.4,23.1 C13.2,28.5 10.7,34.7 10.6,41.3 L0.6,41.3 L0.6,42.7 L10.6,42.7 C10.8,49.3 13.2,55.5 17.5,60.9 C16,62.6 14.6,64.4 13.2,66.6 L14.3,67.4 C15.6,65.4 17.1,63.7 18.4,62 C20.9,65 24,67.8 27.6,70.1 C29.4,71.3 31.3,72.5 33.3,73.5 C33.1,73.9 33,74.4 32.7,74.8 C32.4,75.7 32,76.7 31.7,77.7 L31.7,77.7 L31.9,77.8 L33,78 C33.2,77.1 33.7,76.2 33.9,75.4 C34.1,75.1 34.2,74.6 34.3,74.3 C43.8,79 55.5,81.9 68.2,81.9 L68.2,81.9 C88,81.9 106.9,73.4 116.6,63.2 C106.7,70.8 91.2,77.3 74.7,77.3 C66.4,77.4 58.8,76 52,73.7 L52,73.7 Z M68.2,3.3 L68.2,3.3 C79.2,3.3 89.4,5.4 98,9.1 C90.7,6.5 82.5,5 73.6,5 L73.6,5 C59.5,5 46.6,8.9 37.3,15.2 C36.5,13.9 35.8,12.4 35,11 C35,10.9 34.9,10.9 34.9,10.8 C44.2,6 55.7,3.3 68.2,3.3 L68.2,3.3 Z M28.2,14.6 C29.9,13.5 31.7,12.3 33.6,11.3 C33.6,11.4 33.6,11.4 33.7,11.5 C34.4,13 35.2,14.6 36.1,15.9 C31.3,19.3 27.4,23.5 24.8,28 C24.6,27.8 24.2,27.6 24,27.3 C22.3,26 20.7,24.4 19,22.7 C21.6,19.8 24.7,17.1 28.2,14.6 L28.2,14.6 Z M18.3,23.9 C19.8,25.7 21.6,27.2 23.1,28.5 C23.4,28.7 23.8,29.1 24.2,29.3 C22.3,33 21.3,36.9 21.2,41 L11.8,41 C12,34.8 14.2,29.1 18.3,23.9 L18.3,23.9 Z M11.8,42.5 L21.2,42.5 C21.3,46.6 22.3,50.5 24.3,54.2 C24,54.4 23.6,54.8 23.2,55 C21.5,56.3 19.9,57.9 18.4,59.6 C14.4,54.4 12,48.6 11.8,42.5 L11.8,42.5 Z M28.2,68.8 C24.7,66.4 21.6,63.7 19.2,60.8 C20.7,59 22.5,57.5 24,56.2 C24.2,56 24.6,55.8 24.8,55.5 C27.4,60 31.3,64.2 36.1,67.6 C35.2,69 34.4,70.5 33.7,72.1 L33.7,72.2 C31.8,71 29.9,70 28.2,68.8 L28.2,68.8 Z M68.2,80.1 L68.2,80.1 C55.8,80.1 44.2,77.3 35,72.7 C35,72.6 35,72.6 35.1,72.5 C35.8,71 36.6,69.6 37.5,68.2 C46.9,74.5 59.7,78.4 73.8,78.4 L73.8,78.4 C82.6,78.4 91,76.9 98.2,74.2 C89.4,77.9 79.2,80.1 68.2,80.1 L68.2,80.1 Z" id="Shape" fill="#FFFFFF"></path>
                <path d="M78.3,8.2 C103.3,8.2 123.6,23.2 123.6,41.7 C123.6,60.2 103.3,75.2 78.3,75.2 C53.3,75.2 33,60.2 33,41.7 C33,23.2 53.3,8.2 78.3,8.2 L78.3,8.2 L78.3,8.2 Z" id="XMLID_35_" fill="#FFFFFF"></path>
                <path d="M69.9,41.4 C70,41.5 69.9,41.6 69.9,41.8 C68.4,42.8 66.2,42.5 65.7,44.3 L65.7,44.3 C65.7,44.9 63.4,45.2 60.5,45.2 C57.6,45.2 55.3,44.9 55.3,44.3 L55.3,44.3 C54.9,42.4 52.5,42.8 51.1,41.8 C50.9,41.6 50.9,41.5 51.1,41.2 L51.1,41.3 C51.1,42.2 55.3,42.8 60.5,42.8 C65.7,43 69.8,42.3 69.9,41.4 L69.9,41.4 L69.9,41.4 Z" id="XMLID_8_" fill="#E6BB51"></path>
                <path d="M60.6,39.2 C65.8,39.2 70,39.9 70,40.7 C70,41.6 65.8,42.2 60.6,42.2 C55.4,42.2 51.2,41.5 51.2,40.7 C51.2,39.8 55.4,39.2 60.6,39.2 L60.6,39.2 L60.6,39.2 Z" id="XMLID_33_" fill="#E6BB51"></path>
                <path d="M60.7,21.6 L69.8,41 L69.4,41 L60.3,21.7 L60.7,21.6 Z" id="XMLID_32_" fill="#E6BB51"></path>
                <path d="M60.7,21.7 L51.7,41 L51.2,41 L60.3,21.6 L60.7,21.7 Z" id="XMLID_31_" fill="#E6BB51"></path>
                <path d="M60.6,40.2 C64,40.2 66.8,40.6 66.8,41.3 C66.8,42 64,42.4 60.6,42.4 C57.2,42.4 54.4,42 54.4,41.3 C54.3,40.6 57.2,40.2 60.6,40.2 L60.6,40.2 L60.6,40.2 Z" id="XMLID_30_" fill="#E6BB51"></path>
                <path d="M83.6,10.6 C84.6,10.6 85.5,11.5 85.5,12.6 C85.5,13.7 84.7,14.6 83.6,14.6 C82.6,14.6 81.7,13.7 81.7,12.6 C81.8,11.4 82.6,10.6 83.6,10.6 L83.6,10.6 L83.6,10.6 Z" id="XMLID_29_" fill="#E6BB51"></path>
                <path d="M116.2,41.4 C116.3,41.5 116.2,41.6 116.2,41.8 C114.7,42.8 112.5,42.5 112,44.3 L112,44.3 C112,44.9 109.7,45.2 106.8,45.2 C103.9,45.2 101.6,44.9 101.6,44.3 L101.6,44.3 C101.2,42.4 98.8,42.8 97.4,41.8 C97.2,41.6 97.2,41.5 97.4,41.2 L97.4,41.3 C97.4,42.2 101.6,42.8 106.8,42.8 C112,43 116.1,42.3 116.2,41.4 L116.2,41.4 L116.2,41.4 Z" id="XMLID_7_" fill="#E6BB51"></path>
                <path d="M106.8,39.2 C112,39.2 116.2,39.9 116.2,40.7 C116.2,41.6 112,42.2 106.8,42.2 C101.6,42.2 97.4,41.5 97.4,40.7 C97.5,39.9 101.5,39.2 106.8,39.2 L106.8,39.2 L106.8,39.2 Z" id="XMLID_27_" fill="#E6BB51"></path>
                <path d="M106.9,21.6 L116.1,41 L115.6,41 L106.6,21.7 L106.9,21.6 Z" id="XMLID_26_" fill="#E6BB51"></path>
                <path d="M106.9,21.7 L97.9,41 L97.6,41 L106.6,21.6 L106.9,21.7 Z" id="XMLID_25_" fill="#E6BB51"></path>
                <path d="M106.8,40.2 C110.2,40.2 113,40.6 113,41.3 C113,42 110.2,42.4 106.8,42.4 C103.4,42.4 100.6,42 100.6,41.3 C100.7,40.6 103.4,40.2 106.8,40.2 L106.8,40.2 L106.8,40.2 Z" id="XMLID_24_" fill="#E6BB51"></path>
                <path d="M78.3,8.2 C103.3,8.2 123.6,23.2 123.6,41.7 C123.6,60.2 103.3,75.2 78.3,75.2 C53.3,75.2 33,60.2 33,41.7 C33,23.2 53.3,8.2 78.3,8.2 L78.3,8.2 L78.3,8.2 Z" id="XMLID_23_"></path>
                <g id="XMLID_1_" transform="translate(59.000000, 13.000000)" fill="#E6BB51">
                    <path d="M39.1,57.3 C35.9,59 30.6,60.1 24.6,60.1 L24.6,60.1 C18.7,60.1 13.3,59 10.1,57.3 C9,58 4.3,58 4.3,58.7 C4.1,59.8 4.1,60.1 4,60.6 L24.7,63.9 L45.4,60.6 C45.3,60.3 45.2,59.8 45.1,58.7 C44.8,58 40.3,58 39.1,57.3 L39.1,57.3 Z" id="XMLID_3_"></path>
                    <path d="M13.9,52.7 C16.4,53.8 20.3,54.5 24.6,54.5 L24.6,54.5 C28.8,54.5 32.6,53.8 35.3,52.7 C35.3,52.7 35.3,52.7 35.3,52.6 C35,51.6 34.5,50.7 34,49.7 L15.2,49.7 C14.8,50.8 14.4,51.7 13.9,52.7 L13.9,52.7 L13.9,52.7 Z" id="XMLID_4_"></path>
                    <path d="M10.4,56.6 C13.4,58.3 18.5,59.4 24.5,59.4 L24.5,59.4 C30.4,59.4 35.6,58.3 38.6,56.6 C37.9,54.2 36.6,53.5 35.7,53.2 C33,54.2 29,55 24.5,55 L24.5,55 C20,55 16,54.3 13.3,53.1 C12.4,53.6 11.1,54.1 10.4,56.6 L10.4,56.6 Z" id="XMLID_5_"></path>
                    <path d="M47.7,5.3 C46.9,5.3 46.4,6 46.4,6.8 L46.4,7 C37.6,7.4 38.4,-2.6 24.6,1.3 L24.6,1.3 C11,-2.7 11.6,7.4 2.8,7 L2.8,6.8 C2.8,6 2.1,5.3 1.5,5.3 C0.7,5.3 0.2,6 0.2,6.8 C0.2,7.5 0.6,8.1 1.3,8.2 L1.3,8.2 C3.8,8.9 6.9,8.1 9.3,6.4 C11.8,4.7 16,1.9 21.6,4.9 C23.1,5.7 22.8,8 22.8,9 L21.3,32.8 L24.3,32.8 L24.3,6.2 C24.3,6 24.4,5.9 24.5,5.9 C24.7,5.9 24.7,6.1 24.7,6.2 L24.7,32.8 L27.7,32.8 L26.1,9 C26.1,8 25.8,5.8 27.3,4.9 C33,1.8 37.1,4.7 39.6,6.4 C42,7.9 45.1,8.7 47.6,8.2 L47.6,8.2 C48.3,8 48.7,7.5 48.7,6.8 C49.1,5.9 48.5,5.3 47.7,5.3 L47.7,5.3 Z" id="XMLID_6_"></path>
                </g>
                <path d="M45.6,60.6 L45.6,48.5 L42.3,48.5 L42.3,60.6 L45.6,60.6 Z" id="XMLID_17_" fill="#71262C"></path>
                <path d="M47.3,60.6 L49,60.6 L49,51.7 L54.9,60.6 L56.8,60.6 L56.8,48.5 L55.1,48.5 L55.1,54.7 L51,48.5 L47.3,48.5 L47.3,60.6 Z" id="XMLID_16_" fill="#71262C"></path>
                <path d="M58.3,60.6 L60.1,60.6 L60.1,51.7 L66,60.6 L67.9,60.6 L67.9,48.5 L66,48.5 L66,54.7 L62,48.5 L58.3,48.5 L58.3,60.6 Z" id="XMLID_15_" fill="#71262C"></path>
                <path d="M69.2,60.6 L77,60.6 L77,59.1 L72.6,59.1 L72.6,55.2 L76.5,55.2 L76.5,53.7 L72.6,53.7 L72.6,50.2 L76.8,50.2 L76.8,48.5 L69.2,48.5 L69.2,60.6 Z" id="XMLID_14_" fill="#71262C"></path>
                <path d="M82.1,60.6 L85.4,60.6 L85.4,50.2 L88.5,50.2 L88.5,48.5 L78.7,48.5 L78.7,50.2 L82.1,50.2 L82.1,60.6 Z" id="XMLID_13_" fill="#71262C"></path>
                <path d="M101.6,57.8 L100.1,56.8 C99.8,57.6 99.3,58.2 98.9,58.7 C98.2,59.3 97.7,59.5 96.9,59.5 C95.8,59.5 94.8,58.9 94.1,58 C93.4,57.1 93.2,56 93.2,54.8 C93.2,53.7 93.4,52.7 93.8,51.9 C94.2,50.8 94.9,50.2 95.9,50 C96.1,49.9 96.5,49.9 96.7,49.9 C97.4,49.9 98,50.1 98.6,50.6 C99,50.9 99.5,51.6 99.8,52.3 L101.3,51.2 C100.6,50.2 100,49.7 99.2,49.2 C98.4,48.8 97.5,48.5 96.4,48.5 C96.2,48.5 95.7,48.5 95.5,48.6 C93.8,48.6 92.4,49.3 91.3,50.5 C90.2,51.7 89.6,53.3 89.6,55 L89.6,55.3 L89.6,55.6 C89.8,57.3 90.5,58.6 91.7,59.6 C92.9,60.6 94.3,61.1 96,61.1 C97.3,61.1 98.4,60.9 99.3,60.3 C100.3,59.5 101.1,58.8 101.6,57.8 L101.6,57.8 L101.6,57.8 Z" id="XMLID_12_" fill="#71262C"></path>
                <path d="M108.8,48.3 C106.8,48.3 105.2,49 104,50.3 C102.9,51.4 102.5,52.9 102.5,54.6 C102.5,56.4 103.1,57.8 104,58.9 C105.2,60.2 106.9,60.9 108.8,60.9 C110.8,60.9 112.4,60.2 113.6,58.9 C114.7,57.8 115.1,56.3 115.1,54.5 C115.1,52.7 114.5,51.3 113.6,50.2 C112.4,49 110.8,48.3 108.8,48.3 L108.8,48.3 L108.8,48.3 Z M106.4,51.8 C106.6,51.1 107,50.7 107.4,50.3 C107.8,50 108.4,49.7 108.9,49.7 C109.3,49.7 109.7,49.8 110,50 C110.3,50.2 110.7,50.7 110.9,51.1 C111.1,51.5 111.3,52.1 111.5,52.6 C111.6,53.2 111.7,53.7 111.7,54.4 L111.7,55.3 C111.7,55.5 111.6,55.9 111.6,56.3 C111.4,57.1 111.2,57.8 110.6,58.4 C110,59.1 109.5,59.5 108.8,59.5 C108.6,59.5 108.4,59.4 108.1,59.3 C107.8,59.2 107.5,59.1 107.4,58.7 C107,58.4 106.7,57.7 106.4,57 C106.2,56.3 106.1,55.5 106.1,54.6 C105.9,53.5 106.2,52.6 106.4,51.8 L106.4,51.8 L106.4,51.8 Z" id="XMLID_9_" fill="#71262C"></path>
            </g>
        </g>
    </g>
</svg>